# xmcd
# 
# Track frame offsets:
#     150
#     12457
#     25935
#     40707
#     56495
#     67832
#     80887
#     97740
#     108970
#     119637
#     137990
# 
# Disc length: 2006
# 
# Revision: 1
# Processed by: cddbd v1.5.2PL0 Copyright (c) Steve Scherf et al.
# Submitted via: fre:ac v1.1beta1pre3
# 
DISCID=8e07d40b
DTITLE=Chico Buarque - As Cidades
DYEAR=2010
DGENRE=MPB
TTITLE0=Carioca
TTITLE1=Iracema voou
TTITLE2=Sonhos sonhos são
TTITLE3=A ostra e o vento
TTITLE4=Xote de navegação
TTITLE5=Você, você
TTITLE6=Assentamento
TTITLE7=Injuriado
TTITLE8=Aquela mulher
TTITLE9=Cecília
TTITLE10=Chão de esmeralda
EXTD=
EXTT0=
EXTT1=
EXTT2=
EXTT3=
EXTT4=
EXTT5=
EXTT6=
EXTT7=
EXTT8=
EXTT9=
EXTT10=
PLAYORDER=
